<svg class="SVGInline-svg SVGInline--cleaned-svg SVG-svg" height="16" width="16" xmlns="http://www.w3.org/2000/svg"
     viewBox="0 0 16 16">
    <g fill="none" fill-rule="evenodd">
        <path fill="#43458B" fill-rule="nonzero"
              d="M2 2h12a2 2 0 0 1 2 2v8a2 2 0 0 1-2 2H2a2 2 0 0 1-2-2V4a2 2 0 0 1 2-2Z"></path>
        <path fill="#FFF"
              d="M1.346 5.964H0V4.036h3v-.107L.748 2.44c.267-.213.59-.36.943-.415L3 2.89V2h2v2.036h.046L8 2.08v1.04l-1.383.915H8v1.928H5v.083l2.934 1.941h-1.57L5 7.086V8H3V5.964h-.082L0 7.894v-1.04l1.346-.89Z"></path>
        <path fill="#E25950"
              d="M3 3.93v.106H1.587L.203 3.12c.13-.265.317-.497.545-.68L3 3.93Zm2-.881L6.586 2H8v.104L5.08 4.036H5v-.987ZM2.92 5.964H3v.987L1.414 8H0v-.104l2.92-1.932Zm3.493 0L8 7.014V8h-.08L5 6.07v-.106h1.413ZM8 5.427H4.444V8h-.888V5.427H0v-.854h3.556V2h.888v2.573H8v.854Z"></path>
        <path fill="#E25950" fill-rule="nonzero"
              d="M14 6.5a.5.5 0 1 1 1 0 .5.5 0 0 1-1 0Zm-2 5a.5.5 0 1 1 1 0 .5.5 0 0 1-1 0Zm.067-6.75a.5.5 0 1 1 .866-.5.5.5 0 0 1-.866.5ZM11 6.5c0-.276.22-.5.49-.5a.489.489 0 0 1 .441.245.508.508 0 0 1 0 .51.489.489 0 0 1-.44.245.495.495 0 0 1-.491-.5Z"></path>
    </g>
</svg>