<svg class="SVGInline-svg SVGInline--cleaned-svg SVG-svg" height="16" width="16" xmlns="http://www.w3.org/2000/svg"
     viewBox="0 0 16 16">
    <g fill="none" fill-rule="evenodd">
        <path fill="#F6F9FC" d="M0 8v4.002C0 13.106.895 14 1.994 14h12.012A1.998 1.998 0 0 0 16 12.002V8H0Z"></path>
        <path fill="#EAEEF3" fill-rule="nonzero"
              d="M14 14H2a2 2 0 0 1-2-2V8h1v4a1 1 0 0 0 1 1h12a1 1 0 0 0 1-1V8h1v4a2 2 0 0 1-2 2Z"></path>
        <path fill="#E25950" d="M1.994 2A1.998 1.998 0 0 0 0 3.998V8h16V3.998A1.997 1.997 0 0 0 14.006 2H1.994Z"></path>
    </g>
</svg>