<svg class="SVGInline-svg SVGInline--cleaned-svg SVG-svg" height="16" width="16" xmlns="http://www.w3.org/2000/svg"
     viewBox="0 0 16 16">
    <g fill="none" fill-rule="evenodd">
        <path fill="#F6F9FC" d="M8 2v6h8V3.998A1.993 1.993 0 0 0 14.002 2H8Z"></path>
        <path fill="#EAEEF3" fill-rule="nonzero"
              d="M16 8h-1V4c-.09-.598-.517-1.002-1-1H8V2h6c1.059 0 1.948.894 2 2-.052-.295.065 4.245 0 4Z"></path>
        <path fill="#E25950" d="M0 8v4.002C0 13.106.895 14 1.994 14h12.012A1.998 1.998 0 0 0 16 12.002V8H0Z"></path>
        <path fill="#43458B" d="M1.998 2A2 2 0 0 0 0 3.998V8h8V2H1.998Z"></path>
        <path fill="#FFF"
              d="m3.98 6.157-1.334.377.464-1.307L2 4.38l1.393-.19L3.98 3l.587 1.19 1.393.19-1.11.847.464 1.307z"></path>
    </g>
</svg>