<svg class="SVGInline-svg SVGInline--cleaned-svg SVG-svg" height="16" width="16" xmlns="http://www.w3.org/2000/svg"
     viewBox="0 0 16 16">
    <g fill="none" fill-rule="evenodd">
        <path fill="#FCD669" d="M1.994 2A1.998 1.998 0 0 0 0 3.998V8h16V3.998A1.997 1.997 0 0 0 14.006 2H1.994Z"></path>
        <path fill="#A68527" fill-opacity="0.1" fill-rule="nonzero"
              d="M15 8V4a1 1 0 0 0-1-1H2a1 1 0 0 0-1 1v4H0V4a2 2 0 0 1 2-2h12a2 2 0 0 1 2 2v4h-1Z"></path>
        <path fill="#43458B" d="M0 8h16v3H0z"></path>
        <path fill="#E25950" d="M0 11v1.5c0 .828.667 1.5 1.505 1.5h12.99A1.5 1.5 0 0 0 16 12.5V11H0Z"></path>
    </g>
</svg>