<svg class="SVGInline-svg SVGInline--cleaned-svg SVG-svg" height="16" width="16" xmlns="http://www.w3.org/2000/svg"
     viewBox="0 0 16 16">
    <g fill="none" fill-rule="evenodd">
        <path fill="#E25950" fill-rule="nonzero"
              d="M14 14H2a2 2 0 0 1-2-2V4a2 2 0 0 1 2-2h12a2 2 0 0 1 2 2v8a2 2 0 0 1-2 2Z"></path>
        <path fill="#F6F9FC" fill-rule="nonzero"
              d="M0 11h16v1H0v-1Zm14 3H2a2 2 0 0 1-1.732-1h15.464A2 2 0 0 1 14 14ZM0 9h16v1H0V9Zm8-2h8v1H8V7Zm0-2h8v1H8V5Zm0-2h7.723c.171.295.277.634.277 1H8V3Z"></path>
        <path fill="#E25950" fill-rule="nonzero"
              d="M14 14H2a2 2 0 0 1-2-2V8h1v4a1 1 0 0 0 1 1h12a1 1 0 0 0 1-1V4a1 1 0 0 0-1-1H8V2h6a2 2 0 0 1 2 2v8a2 2 0 0 1-2 2Z"
              opacity="0.1"></path>
        <path fill="#43458B" fill-rule="nonzero" d="M0 8V3.714C0 2.768.796 2 1.778 2H8v6H0Z"></path>
        <path fill="#FCD669"
              d="M4 3.268a1.75 1.75 0 1 0 0 3.464 2 2 0 1 1 0-3.464ZM6 6a1 1 0 1 1 0-2 1 1 0 0 1 0 2Z"></path>
    </g>
</svg>