<svg class="SVGInline-svg SVGInline--cleaned-svg SVG-svg" height="16" width="16" xmlns="http://www.w3.org/2000/svg"
     viewBox="0 0 16 16">
    <g fill="none" fill-rule="evenodd">
        <path fill="#45B2E8" d="M1.994 2A1.992 1.992 0 0 0 0 4v2h16V4c0-1.105-.895-2-1.994-2H1.994Z"></path>
        <path fill="#F6F9FC" d="M0 10v2c0 1.105.895 2 1.994 2h12.012A1.992 1.992 0 0 0 16 12v-2H0Z"></path>
        <path fill="#EAEEF3" fill-rule="nonzero"
              d="M14 14H2a2 2 0 0 1-2-2v-2h1v2a1 1 0 0 0 1 1h12a1 1 0 0 0 1-1v-2h1v2a2 2 0 0 1-2 2Z"></path>
        <path fill="#333" d="M0 6h16v4H0z"></path>
    </g>
</svg>