<svg class="SVGInline-svg SVGInline--cleaned-svg SVG-svg" height="16" width="16" xmlns="http://www.w3.org/2000/svg"
     viewBox="0 0 16 16">
    <g fill="none" fill-rule="evenodd">
        <path fill="#F6F9FC" d="M1.998 2A2.005 2.005 0 0 0 0 4.009v7.982C0 13.101.887 14 1.998 14H8V2H1.998Z"></path>
        <path fill="#EAEEF3" fill-rule="nonzero"
              d="M2 3a1 1 0 0 0-1 1v8a1 1 0 0 0 1 1h6v1H2a2 2 0 0 1-2-2V4a2 2 0 0 1 2-2h6v1H2Z"></path>
        <path fill="#E25950" d="M8 2v12h6.002A2.005 2.005 0 0 0 16 11.991V4.01C16 2.899 15.113 2 14.002 2H8Z"></path>
        <path fill="#CFD7DF" d="M5 5h2v2H5v2H3V7H1V5h2V3h2z"></path>
    </g>
</svg>