<svg class="SVGInline-svg SVGInline--cleaned-svg SVG-svg" height="16" width="16" xmlns="http://www.w3.org/2000/svg"
     viewBox="0 0 16 16">
    <g fill="none" fill-rule="evenodd">
        <path fill="#E25950"
              d="M1 2h14c.555 0 1 .448 1 1v1H0V3c0-.556.448-1 1-1ZM0 12h16v1c0 .556-.448 1-1 1H1c-.555 0-1-.448-1-1v-1Z"></path>
        <path fill="#F6F9FC" d="M0 4h16v8H0z"></path>
        <path fill="#EAEEF3" fill-rule="nonzero" d="M15 12V4h1v8h-1ZM0 4h1v8H0V4Z"></path>
        <path fill="#43458B" d="M0 5h16v6H0z"></path>
    </g>
</svg>