<svg class="SVGInline-svg SVGInline--cleaned-svg SVG-svg" height="16" width="16" xmlns="http://www.w3.org/2000/svg"
     viewBox="0 0 16 16">
    <g fill="none">
        <path fill="#24B47E" d="M6 14H2a2 2 0 0 1-2-2V4a2 2 0 0 1 2-2h4v12Z"></path>
        <path fill="#E25950" d="M14 14H6V2h8a2 2 0 0 1 2 2v8a2 2 0 0 1-2 2Z"></path>
        <path fill="#FCD669"
              d="M5.975 5C7.645 5 9 6.343 9 7.999c0 1.656-1.355 2.999-3.025 2.999C4.324 10.97 3 9.636 3 7.999c0-1.636 1.324-2.97 2.975-2.998V5Z"></path>
        <path fill="#E25950" d="M5.94 6a2 2 0 1 1 .12 4 2 2 0 0 1-.12-4Z"></path>
        <path fill="#FFF" d="M5 7h2v1.5a1 1 0 1 1-2 0V7Z"></path>
    </g>
</svg>