<svg class="SVGInline-svg SVGInline--cleaned-svg SVG-svg" height="16" width="16" xmlns="http://www.w3.org/2000/svg"
     viewBox="0 0 16 16">
    <g fill="none" fill-rule="evenodd" transform="translate(0 2)">
        <rect width="16" height="12" fill="#E25950" rx="2"></rect>
        <path fill="#FCD669"
              d="M8.08 7.785 6.357 8.821a.3.3 0 0 1-.447-.327l.457-1.905-1.545-1.443a.3.3 0 0 1 .192-.52l1.898-.083.895-1.95a.3.3 0 0 1 .546 0l.895 1.95 1.898.084a.3.3 0 0 1 .192.519L9.793 6.589l.457 1.905a.3.3 0 0 1-.447.327L8.08 7.785Z"></path>
    </g>
</svg>