<svg class="SVGInline-svg SVGInline--cleaned-svg SVG-svg" height="16" width="16" xmlns="http://www.w3.org/2000/svg"
     viewBox="0 0 16 16">
    <g fill="none" fill-rule="evenodd">
        <path fill="#F6F9FC" fill-rule="nonzero"
              d="M2 2h12a2 2 0 0 1 2 2v8a2 2 0 0 1-2 2H2a2 2 0 0 1-2-2V4a2 2 0 0 1 2-2Z"></path>
        <path fill="#24B47E" fill-rule="nonzero"
              d="M6.5 9a1.5 1.5 0 0 0 3 0h1A2.498 2.498 0 0 1 8 11.5 2.5 2.5 0 0 1 5.5 9h1Z"></path>
        <path fill="#F79A59" d="m6 6 4-1v2L6 8z"></path>
        <path fill="#EAEEF3" fill-rule="nonzero"
              d="M14 14H2a2 2 0 0 1-2-2V4a2 2 0 0 1 2-2h12a2 2 0 0 1 2 2v8a2 2 0 0 1-2 2Zm1-10a1 1 0 0 0-1-1H2a1 1 0 0 0-1 1v8a1 1 0 0 0 1 1h12a1 1 0 0 0 1-1V4Z"></path>
    </g>
</svg>