<svg class="SVGInline-svg SVGInline--cleaned-svg SVG-svg" height="16" width="16" xmlns="http://www.w3.org/2000/svg"
     viewBox="0 0 16 16">
    <g fill="none" fill-rule="evenodd">
        <path fill="#E25950" d="M1.994 2A1.992 1.992 0 0 0 0 4v2h16V4c0-1.105-.895-2-1.994-2H1.994Z"></path>
        <path fill="#43458B" d="M0 10v2c0 1.105.895 2 1.994 2h12.012A1.992 1.992 0 0 0 16 12v-2H0Z"></path>
        <path fill="#F6F9FC" d="M0 6h16v4H0z"></path>
        <path fill="#EAEEF3" fill-rule="nonzero" d="M6 6h4v2.5a2 2 0 1 1-4 0V6Z"></path>
        <path fill="#E25950" fill-rule="nonzero"
              d="M7 7H6V6h1v1Zm2 0H8V6h1v1ZM8 8H7V7h1v1Zm2 0H9V7h1v1ZM7 9H6V8h1v1Zm2 0H8V8h1v1Zm-1 1H7V9h1v1Zm-1 .232A2.006 2.006 0 0 1 6.677 10H7v.232Zm2 0a1.99 1.99 0 0 1-1 .268V10h1v.232ZM9.937 9a2 2 0 0 1-.614 1H9V9h.937Z"></path>
        <path fill="#EAEEF3" fill-rule="nonzero" d="M15 10V6h1v4h-1ZM0 6h1v4H0V6Z"></path>
    </g>
</svg>