<svg class="SVGInline-svg SVGInline--cleaned-svg SVG-svg" height="16" width="16" xmlns="http://www.w3.org/2000/svg"
     viewBox="0 0 16 16">
    <g fill="none">
        <path fill="#43458B" d="M2 2h12a2 2 0 0 1 2 2v8a2 2 0 0 1-2 2H2a2 2 0 0 1-2-2V4a2 2 0 0 1 2-2Z"></path>
        <path fill="#F6F9FC" d="M16 9H7v5H4V9H0V6h4V2h3v4h9z"></path>
        <path fill="#E25950" d="M16 8H6v6H5V8H0V7h5V2h1v5h10z"></path>
        <path fill="#555ABF" d="M15 9V6h1v3h-1ZM4 13h3v1H4v-1ZM4 2h3v1H4V2ZM0 6h1v3H0V6Z" opacity="0.1"></path>
    </g>
</svg>