<svg class="SVGInline-svg SVGInline--cleaned-svg SVG-svg" height="16" width="16" xmlns="http://www.w3.org/2000/svg"
     viewBox="0 0 16 16">
    <g fill="none" fill-rule="evenodd">
        <path fill="#F6F9FC" d="M1.994 2A1.997 1.997 0 0 0 0 4.005V7h16V4.005A2 2 0 0 0 14.006 2H1.994Z"></path>
        <path fill="#EAEEF3" fill-rule="nonzero"
              d="M15 6V4.005A1 1 0 0 0 14.006 3H1.994A.997.997 0 0 0 1 4.005V6H0V4.005C0 2.894.893 2 1.994 2h12.012A2 2 0 0 1 16 4.005V6h-1Z"></path>
        <path fill="#217AB7" d="M0 6h16v4H0z"></path>
        <path fill="#E25950" d="M0 10v2c0 1.105.895 2 1.994 2h12.012A1.992 1.992 0 0 0 16 12v-2H0Z"></path>
        <path fill="#43458B" fill-rule="nonzero" d="M3 6h4v2.5a2 2 0 1 1-4 0V6Z"></path>
        <path fill="#E25950" d="M3 6h4v3H3z"></path>
    </g>
</svg>