<svg class="SVGInline-svg SVGInline--cleaned-svg SVG-svg" height="16" width="16" xmlns="http://www.w3.org/2000/svg"
     viewBox="0 0 16 16">
    <g fill="none" fill-rule="evenodd">
        <path fill="#43458B" fill-rule="nonzero"
              d="M2 2h12a2 2 0 0 1 2 2v8a2 2 0 0 1-2 2H2a2 2 0 0 1-2-2V4a2 2 0 0 1 2-2Z"></path>
        <path fill="#FCD669"
              d="M8 5a1 1 0 1 1 0-2 1 1 0 0 1 0 2Zm2.5 1.5a1 1 0 1 1 0-2 1 1 0 0 1 0 2ZM12 9a1 1 0 1 1 0-2 1 1 0 0 1 0 2ZM5.5 6.5a1 1 0 1 1 0-2 1 1 0 0 1 0 2ZM8 13a1 1 0 1 1 0-2 1 1 0 0 1 0 2Zm2.5-1.5a1 1 0 1 1 0-2 1 1 0 0 1 0 2Zm-5 0a1 1 0 1 1 0-2 1 1 0 0 1 0 2ZM4 9a1 1 0 1 1 0-2 1 1 0 0 1 0 2Z"></path>
    </g>
</svg>