<svg class="SVGInline-svg SVGInline--cleaned-svg SVG-svg" height="16" width="16" xmlns="http://www.w3.org/2000/svg"
     viewBox="0 0 16 16">
    <g fill="none">
        <path fill="#F6F9FC" d="M5 2h6v12H5z"></path>
        <path fill="#EAEEF3" d="M5 14v-1h6v1H5ZM5 2h6v1H5V2Z"></path>
        <path fill="#24B47E"
              d="M6.5 8a1.5 1.5 0 0 0 3 0h1A2.498 2.498 0 0 1 8 10.5 2.5 2.5 0 0 1 5.5 8h1ZM2 2h3v12H2a2 2 0 0 1-2-2V4a2 2 0 0 1 2-2Z"></path>
        <path fill="#E25950" d="M14 14h-3V2h3a2 2 0 0 1 2 2v8a2 2 0 0 1-2 2Z"></path>
        <path fill="#B5562B" d="M8 7a1 1 0 1 1 0 2 1 1 0 0 1 0-2Z"></path>
    </g>
</svg>