<?xml version="1.0" encoding="UTF-8"?> <svg xmlns="http://www.w3.org/2000/svg" width="585" height="219" viewBox="0 0 585 219" fill="none"><path d="M347.335 208.152V114.712H356.935V167.576L354.119 169.752C354.119 163.437 355.015 157.933 356.807 153.24C358.684 148.547 361.458 144.92 365.127 142.36C368.882 139.715 373.575 138.392 379.207 138.392H379.719C387.911 138.392 394.098 141.08 398.279 146.456C402.546 151.832 404.679 159.299 404.679 168.856V208.152H395.207V166.808C395.207 160.749 393.543 155.971 390.215 152.472C386.887 148.973 382.407 147.224 376.775 147.224C370.716 147.224 365.895 149.187 362.311 153.112C358.727 156.952 356.935 162.029 356.935 168.344V208.152H347.335Z" fill="black"></path><path d="M308.869 210.328C303.152 210.328 298.16 209.347 293.893 207.384C289.712 205.336 286.213 202.605 283.397 199.192C280.581 195.693 278.448 191.853 276.997 187.672C275.632 183.491 274.949 179.267 274.949 175V173.208C274.949 168.856 275.632 164.632 276.997 160.536C278.448 156.355 280.581 152.6 283.397 149.272C286.213 145.859 289.712 143.171 293.893 141.208C298.16 139.16 303.066 138.136 308.613 138.136C314.245 138.136 319.237 139.16 323.589 141.208C328.026 143.256 331.61 146.157 334.341 149.912C337.072 153.667 338.693 158.104 339.205 163.224H329.989C329.221 158.531 327.002 154.648 323.333 151.576C319.749 148.419 314.842 146.84 308.613 146.84C303.237 146.84 298.757 148.077 295.173 150.552C291.674 152.941 289.029 156.227 287.237 160.408C285.445 164.504 284.549 169.069 284.549 174.104C284.549 179.053 285.445 183.661 287.237 187.928C289.029 192.109 291.717 195.48 295.301 198.04C298.885 200.515 303.408 201.752 308.869 201.752C313.05 201.752 316.677 201.027 319.749 199.576C322.906 198.04 325.424 195.992 327.301 193.432C329.264 190.872 330.416 188.056 330.757 184.984H339.973C339.632 190.104 338.01 194.584 335.109 198.424C332.293 202.179 328.624 205.123 324.101 207.256C319.578 209.304 314.501 210.328 308.869 210.328Z" fill="black"></path><path d="M261.891 208.92C257.198 208.92 253.144 208.237 249.731 206.872C246.318 205.507 243.672 203.203 241.795 199.96C239.918 196.632 238.979 192.195 238.979 186.648V119.064H248.195V188.056C248.195 191.981 249.262 195.011 251.395 197.144C253.528 199.192 256.558 200.216 260.483 200.216H272.643V208.92H261.891ZM226.819 147.736V140.44H272.643V147.736H226.819Z" fill="black"></path><path d="M197.843 210.328C192.04 210.328 187.006 209.347 182.739 207.384C178.472 205.336 174.974 202.648 172.243 199.32C169.512 195.907 167.464 192.109 166.099 187.928C164.819 183.747 164.179 179.437 164.179 175V173.208C164.179 168.856 164.819 164.589 166.099 160.408C167.464 156.227 169.512 152.472 172.243 149.144C174.974 145.816 178.387 143.171 182.483 141.208C186.664 139.16 191.528 138.136 197.075 138.136C204.158 138.136 210.046 139.715 214.739 142.872C219.518 146.029 223.102 150.083 225.491 155.032C227.88 159.896 229.075 165.144 229.075 170.776V175.768H168.531V168.344H222.419L219.987 172.056C219.987 167.021 219.091 162.627 217.299 158.872C215.592 155.032 213.032 152.045 209.619 149.912C206.291 147.693 202.11 146.584 197.075 146.584C191.784 146.584 187.39 147.821 183.891 150.296C180.392 152.771 177.747 156.056 175.955 160.152C174.248 164.248 173.395 168.899 173.395 174.104C173.395 179.224 174.248 183.917 175.955 188.184C177.747 192.365 180.435 195.693 184.019 198.168C187.688 200.643 192.296 201.88 197.843 201.88C203.731 201.88 208.51 200.557 212.179 197.912C215.848 195.181 218.11 191.981 218.963 188.312H227.923C227.07 192.835 225.278 196.76 222.547 200.088C219.816 203.331 216.36 205.848 212.179 207.64C207.998 209.432 203.219 210.328 197.843 210.328Z" fill="black"></path><path d="M129.045 208.152V140.44H136.725V168.728H135.957C135.957 158.829 138.133 151.533 142.485 146.84C146.837 142.061 153.664 139.672 162.965 139.672H165.141V148.376H161.173C153.834 148.376 148.245 150.296 144.405 154.136C140.565 157.891 138.645 163.437 138.645 170.776V208.152H129.045Z" fill="black"></path><path d="M109.986 208.92C105.293 208.92 101.239 208.237 97.826 206.872C94.4127 205.507 91.7673 203.203 89.89 199.96C88.0127 196.632 87.074 192.195 87.074 186.648V119.064H96.29V188.056C96.29 191.981 97.3567 195.011 99.49 197.144C101.623 199.192 104.653 200.216 108.578 200.216H120.738V208.92H109.986ZM74.914 147.736V140.44H120.738V147.736H74.914Z" fill="black"></path><path d="M38.528 210.328C30.6773 210.328 24.064 209.091 18.688 206.616C13.312 204.056 9.216 200.557 6.4 196.12C3.66933 191.597 2.304 186.52 2.304 180.888H12.032C12.032 184.472 12.8853 187.843 14.592 191C16.384 194.072 19.2 196.589 23.04 198.552C26.9653 200.429 32.128 201.368 38.528 201.368C44.416 201.368 49.28 200.515 53.12 198.808C57.0453 197.101 59.9467 194.797 61.824 191.896C63.7867 188.995 64.768 185.752 64.768 182.168C64.768 177.645 62.976 173.891 59.392 170.904C55.8933 167.832 50.6027 165.997 43.52 165.4L32.768 164.376C24.7467 163.693 18.3467 161.219 13.568 156.952C8.87467 152.6 6.528 146.883 6.528 139.8C6.528 134.424 7.808 129.688 10.368 125.592C12.928 121.496 16.5547 118.253 21.248 115.864C26.0267 113.475 31.744 112.28 38.4 112.28C45.1413 112.28 50.9013 113.517 55.68 115.992C60.544 118.381 64.256 121.709 66.816 125.976C69.376 130.243 70.656 135.192 70.656 140.824H60.928C60.928 137.411 60.16 134.211 58.624 131.224C57.088 128.237 54.656 125.848 51.328 124.056C48 122.179 43.6907 121.24 38.4 121.24C33.3653 121.24 29.184 122.093 25.856 123.8C22.6133 125.507 20.1813 127.768 18.56 130.584C17.024 133.4 16.256 136.472 16.256 139.8C16.256 143.981 17.7493 147.523 20.736 150.424C23.7227 153.325 28.032 154.989 33.664 155.416L44.416 156.44C50.7307 156.952 56.1067 158.36 60.544 160.664C65.0667 162.883 68.5227 165.827 70.912 169.496C73.3013 173.08 74.496 177.304 74.496 182.168C74.496 187.629 73.0027 192.493 70.016 196.76C67.1147 201.027 62.976 204.355 57.6 206.744C52.224 209.133 45.8667 210.328 38.528 210.328Z" fill="black"></path><path d="M276.294 99.584C270.15 99.584 264.731 98.6027 260.038 96.64C255.345 94.6773 251.377 92.032 248.134 88.704C244.891 85.2907 242.417 81.4507 240.71 77.184C239.089 72.9173 238.278 68.48 238.278 63.872V61.184C238.278 56.4053 239.131 51.8827 240.838 47.616C242.63 43.264 245.147 39.424 248.39 36.096C251.718 32.6827 255.729 30.0373 260.422 28.16C265.115 26.1973 270.406 25.216 276.294 25.216C282.182 25.216 287.473 26.1973 292.166 28.16C296.859 30.0373 300.827 32.6827 304.07 36.096C307.398 39.424 309.915 43.264 311.622 47.616C313.329 51.8827 314.182 56.4053 314.182 61.184V63.872C314.182 68.48 313.329 72.9173 311.622 77.184C310.001 81.4507 307.569 85.2907 304.326 88.704C301.083 92.032 297.115 94.6773 292.422 96.64C287.729 98.6027 282.353 99.584 276.294 99.584ZM276.294 84.352C280.646 84.352 284.315 83.4133 287.302 81.536C290.289 79.5733 292.55 76.9707 294.086 73.728C295.622 70.4 296.39 66.6453 296.39 62.464C296.39 58.1973 295.579 54.4427 293.958 51.2C292.422 47.872 290.118 45.2693 287.046 43.392C284.059 41.4293 280.475 40.448 276.294 40.448C272.113 40.448 268.486 41.4293 265.414 43.392C262.427 45.2693 260.123 47.872 258.502 51.2C256.881 54.4427 256.07 58.1973 256.07 62.464C256.07 66.6453 256.838 70.4 258.374 73.728C259.995 76.9707 262.299 79.5733 265.286 81.536C268.273 83.4133 271.942 84.352 276.294 84.352Z" fill="black"></path><path d="M200.251 97.152V27.648H214.331V57.088H213.947C213.947 47.104 216.08 39.552 220.347 34.432C224.614 29.312 230.886 26.752 239.163 26.752H241.723V42.24H236.859C230.886 42.24 226.235 43.8613 222.907 47.104C219.664 50.2613 218.043 54.8693 218.043 60.928V97.152H200.251Z" fill="black"></path><path d="M172.194 97.152V27.648H189.986V97.152H172.194ZM162.466 40.96V27.648H189.986V40.96H162.466ZM178.722 19.328C175.223 19.328 172.621 18.432 170.914 16.64C169.293 14.7627 168.482 12.4587 168.482 9.728C168.482 6.82667 169.293 4.48001 170.914 2.688C172.621 0.896001 175.223 0 178.722 0C182.221 0 184.781 0.896001 186.402 2.688C188.023 4.48001 188.834 6.82667 188.834 9.728C188.834 12.4587 188.023 14.7627 186.402 16.64C184.781 18.432 182.221 19.328 178.722 19.328Z" fill="black"></path><path d="M96.106 97.152V3.71201H113.898V58.24H110.826C110.826 51.2427 111.722 45.312 113.514 40.448C115.306 35.584 117.951 31.872 121.45 29.312C125.034 26.752 129.557 25.472 135.018 25.472H135.786C143.722 25.472 149.738 28.2027 153.834 33.664C157.93 39.1253 159.978 47.0613 159.978 57.472V97.152H142.186V55.808C142.186 51.3707 140.906 47.872 138.346 45.312C135.871 42.752 132.586 41.472 128.49 41.472C124.138 41.472 120.597 42.9227 117.866 45.824C115.221 48.64 113.898 52.352 113.898 56.96V97.152H96.106Z" fill="black"></path><path d="M47.616 99.584C39.168 99.584 31.9147 98.0907 25.856 95.104C19.7973 92.1173 14.848 88.2347 11.008 83.456C7.25333 78.6773 4.48 73.472 2.688 67.84C0.896 62.208 0 56.7893 0 51.584V48.768C0 42.9653 0.896 37.248 2.688 31.616C4.56533 25.984 7.424 20.864 11.264 16.256C15.104 11.648 19.968 7.97867 25.856 5.248C31.8293 2.432 38.8693 1.024 46.976 1.024C55.424 1.024 62.7627 2.56 68.992 5.632C75.3067 8.61867 80.3413 12.8853 84.096 18.432C87.8507 23.8933 90.112 30.2933 90.88 37.632H72.576C71.8933 33.3653 70.3573 29.7813 67.968 26.88C65.664 23.8933 62.72 21.6747 59.136 20.224C55.552 18.688 51.4987 17.92 46.976 17.92C42.368 17.92 38.272 18.7307 34.688 20.352C31.104 21.888 28.1173 24.1067 25.728 27.008C23.3387 29.9093 21.504 33.3227 20.224 37.248C19.0293 41.1733 18.432 45.5253 18.432 50.304C18.432 54.912 19.0293 59.1787 20.224 63.104C21.504 67.0293 23.3813 70.4853 25.856 73.472C28.3307 76.3733 31.36 78.6347 34.944 80.256C38.6133 81.8773 42.8373 82.688 47.616 82.688C54.6133 82.688 60.5013 80.9813 65.28 77.568C70.144 74.0693 73.088 69.2053 74.112 62.976H92.416C91.5627 69.632 89.3013 75.7333 85.632 81.28C81.9627 86.8267 76.928 91.264 70.528 94.592C64.128 97.92 56.4907 99.584 47.616 99.584Z" fill="black"></path><path d="M457.519 162.366C441.424 169.35 428.782 179.489 431.098 202.045C436.033 188.665 444.939 181.166 458.463 175.462C458.158 171.186 457.838 166.803 457.519 162.366Z" fill="black"></path><path d="M418.094 80.6703C406.617 122.757 490.984 124.199 490.984 143.603C490.984 150.285 485.144 154.028 473.865 158.499C473.456 163.275 473.07 167.956 472.706 172.541C493.25 164.772 510.495 159.372 510.495 142.744C510.495 113.011 459.785 117.215 418.094 80.6703Z" fill="black"></path><path d="M472.969 133.558C469.204 167.138 467.269 201.85 465.753 218.262C462.68 198.305 461.442 160.285 457.664 127.772C462.973 129.799 468.23 131.687 472.969 133.558Z" fill="black"></path><path d="M494.316 78.5323C495.176 79.1512 496.089 79.6941 497.043 80.1548C497.994 80.6187 498.97 81.0289 499.966 81.3836C500.956 81.7369 501.968 82.0225 502.996 82.2383C504.008 82.4599 505.043 82.5498 506.078 82.5059L506.452 82.4885L506.826 82.4341C506.952 82.4196 507.078 82.3956 507.2 82.3623L507.574 82.2753C507.824 82.2209 508.075 82.1318 508.322 82.0578C508.57 81.9839 508.823 81.8969 509.053 81.8099C510.022 81.4635 510.949 81.009 511.815 80.4549C512.669 79.9201 513.438 79.2603 514.097 78.4975C514.736 77.7496 515.223 76.8836 515.53 75.9485L515.815 75.059L516.6 75.681C517.131 76.0588 517.751 76.2926 518.399 76.3596C519.12 76.455 519.848 76.4783 520.574 76.4292C522.081 76.3204 523.576 76.0884 525.045 75.7354C526.524 75.3961 528.003 74.9698 529.447 74.487C530.887 74.0141 532.297 73.4548 533.669 72.8123C534.325 72.517 534.951 72.1594 535.539 71.7444C536.143 71.3239 536.724 70.8716 537.279 70.3894C538.391 69.4036 539.416 68.3246 540.344 67.164C541.267 66.0276 542.078 64.8047 542.767 63.5124C543.089 62.8867 543.363 62.2374 543.586 61.5702C543.793 60.9591 543.918 60.3237 543.961 59.6802L544.05 58.0055L545.814 58.31C546.407 58.3874 547.009 58.3691 547.597 58.2556C548.297 58.1322 548.988 57.9592 549.663 57.738C551.084 57.27 552.472 56.7046 553.815 56.0459C555.177 55.3853 556.503 54.6543 557.789 53.8558C558.441 53.4621 559.052 53.0358 559.642 52.6074C560.213 52.2085 560.755 51.768 561.262 51.2894L561.423 51.1284C561.476 51.0738 561.523 51.0141 561.564 50.9501L561.869 50.5934L562.171 50.1845L562.332 49.967L562.473 49.7343C562.669 49.432 562.867 49.1471 563.063 48.8252C563.259 48.5033 563.437 48.2032 563.615 47.8639C564.342 46.5527 564.995 45.2021 565.573 43.8186C566.147 42.4473 566.641 41.0435 567.052 39.6145C567.104 39.4361 567.158 39.2578 567.193 39.0968L567.319 38.5814C567.354 38.403 567.408 38.2247 567.443 38.0638L567.532 37.5657L567.584 37.3156L567.604 37.1916L567.621 37.0655L567.674 36.5848C567.674 36.5131 567.693 36.4239 567.693 36.3543V35.7301L567.745 34.038L569.368 33.3594C570.38 32.9375 571.291 32.3059 572.041 31.5064C572.864 30.6485 573.56 29.6765 574.107 28.6203C574.714 27.4962 575.224 26.3217 575.629 25.11C576.059 23.8476 576.422 22.5633 576.717 21.2626C577.019 19.9424 577.269 18.607 577.465 17.2347C577.661 15.8623 577.839 14.5095 577.983 13.1197C578.25 10.3576 578.418 7.55849 578.463 4.74416C578.481 4.38747 578.481 4.05036 578.481 3.69367V3.32394C578.483 3.76906 578.586 4.20785 578.783 4.60714C579.054 5.1674 579.482 5.63723 580.014 5.95993C580.668 6.34847 581.44 6.48751 582.189 6.35141C582.39 6.30863 582.587 6.24897 582.778 6.17307C583.009 6.0665 583.026 6.0491 582.974 6.08607L582.937 6.10347L582.813 6.15567L582.563 6.28181L580.569 7.24313L579.57 7.72378C579.231 7.88472 578.918 8.02827 578.572 8.18704L576.558 9.11355C575.906 9.41803 575.223 9.72035 574.546 10.0053L572.515 10.8752C571.836 11.1601 571.16 11.4276 570.484 11.7126C569.807 11.9975 569.129 12.2846 568.435 12.5325C562.963 14.69 557.415 16.6025 551.792 18.2699C550.385 18.681 548.965 19.0899 547.569 19.4813C546.172 19.8728 544.741 20.2295 543.328 20.6036C541.914 20.9777 540.5 21.317 539.069 21.6388L536.931 22.1195L534.793 22.5828C529.073 23.7942 523.318 24.7925 517.564 25.6472L508.962 26.8782C508.251 26.9848 507.555 27.0957 506.861 27.2175C506.504 27.2697 506.165 27.3415 505.826 27.4132C505.486 27.485 505.173 27.5546 504.83 27.6307C503.578 27.945 502.386 28.463 501.302 29.164C499.055 30.5886 497.043 32.5852 495.367 34.8188C494.528 35.9299 493.78 37.1059 493.129 38.3356C492.806 38.9493 492.516 39.5795 492.259 40.2234C492.009 40.8443 491.823 41.4893 491.706 42.1482L490.369 42.0417C490.415 41.2633 490.547 40.4924 490.762 39.7428C490.974 39.0176 491.224 38.3039 491.51 37.6049C491.795 36.9111 492.115 36.2325 492.472 35.5561C492.828 34.8797 493.203 34.2381 493.594 33.6139C493.985 32.9897 494.431 32.3677 494.877 31.7435C495.323 31.1193 495.804 30.5495 496.302 29.9796C496.806 29.4033 497.341 28.8558 497.907 28.3397C498.478 27.8133 499.079 27.3196 499.705 26.8608C500.346 26.3913 501.019 25.9683 501.719 25.595L502.254 25.3275C502.433 25.2405 502.629 25.1687 502.807 25.0796C502.985 24.9904 503.198 24.936 503.377 24.8468C503.555 24.7577 503.768 24.7055 503.947 24.6511C504.321 24.5445 504.695 24.4206 505.051 24.3314C505.408 24.2422 505.782 24.1356 506.139 24.0465C506.87 23.8681 507.581 23.7072 508.294 23.5462C511.145 22.9416 513.977 22.3718 516.811 21.7824C519.645 21.193 522.442 20.5884 525.239 19.9468C528.036 19.3052 530.835 18.6114 533.595 17.898C536.355 17.1846 539.119 16.4017 541.881 15.5991C544.643 14.7966 547.351 13.9244 550.059 13.0175C550.735 12.8 551.414 12.5543 552.09 12.3215C552.767 12.0888 553.445 11.8583 554.122 11.6082C555.457 11.1275 556.812 10.6469 558.15 10.1292L560.144 9.36366L562.141 8.5807C563.476 8.06307 564.777 7.49324 566.095 6.95821C567.413 6.42318 568.704 5.81856 570.009 5.24873L571.952 4.35702C572.593 4.05471 573.257 3.7698 573.894 3.44791L575.819 2.5214C576.138 2.36046 576.458 2.21909 576.78 2.05814L577.724 1.57749L579.631 0.616178L579.862 0.490033L579.988 0.437835L580.023 0.418262C580.005 0.437836 580.04 0.400863 580.29 0.294292C580.502 0.211611 580.72 0.146151 580.943 0.0985499C581.248 0.038173 581.56 0.0264276 581.869 0.0637505C582.433 0.112309 582.975 0.309327 583.438 0.634787C583.901 0.960247 584.27 1.40255 584.507 1.91677C584.704 2.34161 584.813 2.80172 584.827 3.26957V4.90945C584.81 6.40579 584.773 7.88472 584.684 9.38106C584.594 10.8774 584.466 12.3759 584.309 13.8722C583.981 16.8995 583.415 19.8963 582.617 22.835C582.204 24.3438 581.695 25.825 581.095 27.2697C580.486 28.7662 579.753 30.2089 578.903 31.5825C578.448 32.2867 577.954 32.9649 577.424 33.6139C577.156 33.9532 576.854 34.2555 576.569 34.5752C576.408 34.7361 576.247 34.8797 576.106 35.0385C575.964 35.1972 575.803 35.343 575.625 35.4843C574.273 36.6765 572.698 37.5881 570.99 38.166L572.667 35.7975C572.624 36.76 572.478 37.715 572.232 38.6466L572.071 39.2882C572.017 39.5057 571.947 39.6993 571.875 39.9124L571.68 40.5366C571.608 40.7541 571.536 40.9281 571.462 41.1413C570.901 42.7112 570.248 44.2464 569.505 45.739C568.757 47.218 567.982 48.6621 567.099 50.0693C566.882 50.4259 566.664 50.7631 566.406 51.1197C566.147 51.4764 565.925 51.8157 565.657 52.1528L565.462 52.4203L565.244 52.6879L564.809 53.2055C564.652 53.3863 564.485 53.5583 564.309 53.7209C564.22 53.8101 564.148 53.8993 564.061 53.9711L563.794 54.2212C563.125 54.794 562.417 55.3181 561.673 55.7893C560.96 56.2525 560.266 56.6788 559.535 57.0703C558.106 57.8698 556.636 58.5958 555.133 59.2452C553.617 59.9092 552.058 60.4687 550.466 60.9199C549.629 61.1494 548.777 61.3223 547.917 61.4375C547.686 61.4549 547.482 61.4897 547.24 61.4897C546.999 61.4897 546.777 61.5267 546.527 61.5071L546.17 61.4897C546.045 61.4866 545.92 61.475 545.796 61.4549C545.532 61.4233 545.271 61.3753 545.013 61.3114L546.866 59.939C546.768 60.8483 546.553 61.7409 546.225 62.5946C545.914 63.397 545.541 64.1737 545.109 64.9174C544.28 66.3434 543.307 67.6808 542.205 68.9083C541.133 70.1341 539.959 71.267 538.695 72.2947C538.054 72.8156 537.381 73.2971 536.681 73.7366C536.324 73.9541 535.968 74.1716 535.576 74.3608C535.185 74.55 534.828 74.7175 534.437 74.8784C532.961 75.4868 531.45 76.0039 529.911 76.427C528.388 76.8728 526.846 77.2295 525.278 77.5318C523.701 77.8397 522.1 78.0129 520.493 78.0495C519.663 78.0637 518.834 77.9981 518.016 77.8537C517.799 77.8168 517.581 77.7646 517.394 77.7102L517.072 77.6036L516.752 77.497C516.316 77.322 515.913 77.075 515.558 76.7663L516.626 76.4814C516.217 77.5591 515.6 78.5457 514.81 79.3849C514.047 80.2024 513.162 80.8978 512.187 81.4467C511.23 81.9938 510.215 82.4315 509.16 82.7516C508.892 82.8212 508.642 82.9104 508.375 82.9691C508.107 83.0278 507.84 83.1127 507.572 83.1475L507.163 83.2192C507.028 83.2452 506.892 83.2626 506.754 83.2714L506.319 83.3258H505.917C504.823 83.3078 503.734 83.1618 502.674 82.8908C501.629 82.6255 500.604 82.2861 499.608 81.8751C498.614 81.4666 497.645 81.0027 496.704 80.4854C495.766 79.9729 494.871 79.3829 494.031 78.7215L494.316 78.5323Z" fill="black"></path><path d="M435.752 78.7281C434.912 79.3895 434.018 79.9795 433.079 80.492C432.138 81.0093 431.169 81.4733 430.176 81.8817C429.18 82.2923 428.156 82.6317 427.111 82.8974C426.051 83.1681 424.963 83.3141 423.869 83.3324H423.457L423.022 83.278C422.884 83.2694 422.747 83.2519 422.611 83.2258L422.203 83.1541C421.935 83.1193 421.668 83.0301 421.4 82.9757C421.132 82.9213 420.882 82.8322 420.617 82.7582C419.561 82.4386 418.545 82.0008 417.587 81.4533C416.607 80.9037 415.717 80.206 414.949 79.3849C414.159 78.5458 413.542 77.5591 413.133 76.4814L414.201 76.7663C413.847 77.0751 413.443 77.3221 413.007 77.4971L412.687 77.6037L412.365 77.7103C412.17 77.7646 411.957 77.8168 411.743 77.8538C410.926 77.9982 410.096 78.0637 409.266 78.0495C407.659 78.0128 406.059 77.8396 404.481 77.5319C402.913 77.2296 401.382 76.8794 399.849 76.4271C398.31 76.004 396.798 75.4868 395.323 74.8785C394.931 74.7176 394.575 74.5566 394.183 74.3609C393.792 74.1652 393.435 73.952 393.078 73.7367C392.379 73.2967 391.706 72.8152 391.064 72.2947C389.801 71.2676 388.627 70.1347 387.556 68.9084C386.459 67.6806 385.491 66.3433 384.668 64.9174C384.24 64.1751 383.871 63.4007 383.563 62.6012C383.235 61.7475 383.019 60.8549 382.922 59.9456L384.775 61.318C384.517 61.3821 384.255 61.4301 383.992 61.4615C383.868 61.4817 383.743 61.4934 383.617 61.4963L383.261 61.5137C383.011 61.5333 382.78 61.4963 382.547 61.4963C382.315 61.4963 382.102 61.4615 381.871 61.4441C381.011 61.3289 380.159 61.156 379.322 60.9265C377.73 60.4753 376.17 59.9158 374.655 59.2518C373.149 58.6061 371.678 57.8838 370.246 57.0878C369.518 56.6963 368.822 56.27 368.108 55.8067C367.365 55.3356 366.656 54.8115 365.988 54.2386L365.722 53.9885C365.635 53.9096 365.551 53.8261 365.472 53.7384C365.296 53.5764 365.13 53.4042 364.974 53.223L364.539 52.7053L364.322 52.4378L364.124 52.1703C363.858 51.8332 363.608 51.4939 363.376 51.1372C363.143 50.7805 362.895 50.4434 362.682 50.0867C361.812 48.6796 361.025 47.2354 360.276 45.7565C359.534 44.2639 358.88 42.7286 358.319 41.1587C358.247 40.9412 358.175 40.7673 358.101 40.5541L357.906 39.9299C357.834 39.7124 357.764 39.521 357.71 39.3057L357.549 38.6641C357.302 37.7327 357.157 36.7775 357.114 35.815L358.789 38.1835C357.079 37.6006 355.503 36.6831 354.152 35.4844C353.973 35.343 353.832 35.1821 353.671 35.0385C353.51 34.895 353.369 34.7362 353.208 34.5753C352.923 34.2556 352.621 33.9533 352.353 33.614C351.823 32.965 351.329 32.2868 350.874 31.5826C350.023 30.2087 349.287 28.7661 348.675 27.2698C348.075 25.8251 347.567 24.3439 347.153 22.8351C346.356 19.8962 345.791 16.8994 345.461 13.8723C345.31 12.3789 345.188 10.8818 345.095 9.38114C345.006 7.8848 344.969 6.40586 344.952 4.90952V3.26964C344.967 2.80157 345.076 2.34133 345.274 1.91685C345.51 1.40253 345.879 0.960063 346.342 0.634546C346.805 0.309029 347.346 0.112099 347.91 0.0638268C348.219 0.0265039 348.531 0.0382493 348.836 0.0986262C349.059 0.146227 349.277 0.211687 349.489 0.294368C349.739 0.400939 349.774 0.437912 349.756 0.418338L349.793 0.437911L349.917 0.490109L350.148 0.616254L352.055 1.57756L352.999 2.05822C353.321 2.21916 353.652 2.36053 353.963 2.52147L355.885 3.44799C356.538 3.76987 357.19 4.05479 357.827 4.3571L359.77 5.24881C361.075 5.81864 362.379 6.40586 363.684 6.95829C364.989 7.51072 366.294 8.06314 367.638 8.58077L369.635 9.36374L371.632 10.1293C372.967 10.6469 374.322 11.1276 375.657 11.6082C376.334 11.8584 377.012 12.0911 377.689 12.3216C378.365 12.5522 379.044 12.8023 379.72 13.0176C382.427 13.9238 385.153 14.7843 387.898 15.5992C390.66 16.4017 393.405 17.1869 396.184 17.8981C398.964 18.6093 401.743 19.3052 404.54 19.9468C407.337 20.5884 410.134 21.1952 412.968 21.7825C415.802 22.3697 418.634 22.9417 421.485 23.5463C422.198 23.7073 422.909 23.8682 423.64 24.0466C423.997 24.1357 424.354 24.2249 424.728 24.3315C425.102 24.438 425.458 24.549 425.832 24.6512C426.011 24.7055 426.207 24.7773 426.402 24.8469C426.598 24.9165 426.794 24.9905 426.972 25.0796C427.15 25.1688 427.346 25.2406 427.525 25.3276L428.06 25.5951C428.76 25.9683 429.433 26.3914 430.074 26.8609C430.7 27.3197 431.301 27.8134 431.872 28.3398C432.438 28.8559 432.973 29.4033 433.477 29.9797C433.975 30.5495 434.456 31.1368 434.902 31.7436C435.348 32.3504 435.772 32.9724 436.185 33.614C436.598 34.2556 436.951 34.8972 437.307 35.5562C437.664 36.2152 437.984 36.9111 438.269 37.6049C438.555 38.3043 438.805 39.0179 439.019 39.7429C439.232 40.4928 439.363 41.2636 439.41 42.0417L438.073 42.1483C437.956 41.4894 437.77 40.8444 437.52 40.2235C437.264 39.5795 436.973 38.9494 436.65 38.3357C435.997 37.102 435.247 35.9223 434.406 34.808C432.731 32.5809 430.709 30.5843 428.473 29.1532C427.388 28.4522 426.196 27.9342 424.943 27.6199C424.606 27.5482 424.29 27.4612 423.947 27.4024C423.603 27.3437 423.268 27.2589 422.914 27.2067C422.218 27.0827 421.524 26.974 420.811 26.8674L412.222 25.6386C406.467 24.7838 400.712 23.7856 394.992 22.5741L392.865 22.1218L390.727 21.6368C389.301 21.3149 387.9 20.9582 386.469 20.6015C385.038 20.2448 383.641 19.8729 382.228 19.4792C380.814 19.0856 379.413 18.6789 378.004 18.2678C372.397 16.5989 366.85 14.6879 361.364 12.5348C360.668 12.2868 359.991 11.9823 359.313 11.7148C358.634 11.4473 357.96 11.1624 357.281 10.8775L355.252 10.0075C354.574 9.7226 353.897 9.42028 353.238 9.1158L351.224 8.18929C350.885 8.03052 350.572 7.88697 350.226 7.72603L349.228 7.24538L347.233 6.28407L346.975 6.15575L346.851 6.10355L346.814 6.08615C346.761 6.04918 346.779 6.06658 347.012 6.17315C347.202 6.24906 347.398 6.30873 347.599 6.35149C348.347 6.48759 349.12 6.34855 349.774 5.96001C350.306 5.6373 350.734 5.16748 351.005 4.60721C351.201 4.20792 351.305 3.76913 351.307 3.32402V3.6981C351.307 4.05478 351.307 4.3919 351.324 4.74858C351.379 7.56291 351.542 10.362 351.805 13.1242C351.949 14.5139 352.11 15.8841 352.323 17.2391C352.536 18.5941 352.758 19.9468 353.071 21.267C353.365 22.5678 353.728 23.852 354.158 25.1144C354.564 26.3262 355.073 27.5006 355.681 28.6247C356.228 29.6805 356.924 30.6523 357.747 31.5108C358.497 32.3098 359.408 32.9413 360.42 33.3639L362.042 34.0424L362.095 35.7345V36.3587C362.095 36.4283 362.114 36.5175 362.114 36.5893L362.166 37.0699L362.184 37.1961L362.203 37.32L362.256 37.5701L362.345 38.0682C362.382 38.2291 362.434 38.4075 362.469 38.5858L362.595 39.1013C362.63 39.2622 362.684 39.4406 362.736 39.6189C363.148 41.0476 363.641 42.4513 364.215 43.823C364.792 45.2066 365.446 46.5571 366.173 47.8683C366.349 48.2076 366.527 48.5099 366.723 48.8296C366.919 49.1493 367.116 49.4364 367.312 49.7388L367.454 49.9715L367.614 50.189L367.917 50.5978L368.221 50.9545C368.262 51.0185 368.31 51.0782 368.363 51.1329L368.524 51.2938C369.031 51.7724 369.572 52.213 370.144 52.6118C370.733 53.0468 371.355 53.4665 371.997 53.8602C373.283 54.6587 374.609 55.3897 375.97 56.0503C377.315 56.7084 378.703 57.2731 380.125 57.7402C380.8 57.9614 381.491 58.1344 382.191 58.2579C382.778 58.3713 383.381 58.3897 383.974 58.3122L385.738 58.0078L385.827 59.6824C385.869 60.326 385.995 60.9613 386.201 61.5724C386.425 62.2397 386.699 62.889 387.021 63.5146C387.71 64.8069 388.521 66.0298 389.444 67.1663C390.372 68.3268 391.397 69.4059 392.509 70.3917C393.061 70.8736 393.638 71.3259 394.238 71.7467C394.826 72.1612 395.452 72.5188 396.108 72.8145C397.481 73.4571 398.891 74.0163 400.332 74.4892C401.774 74.9721 403.253 75.3983 404.731 75.7376C406.201 76.0906 407.696 76.3227 409.203 76.4314C409.929 76.4805 410.657 76.4572 411.378 76.3618C412.026 76.2949 412.646 76.0611 413.177 75.6832L413.962 75.0612L414.247 75.9508C414.557 76.8862 415.047 77.752 415.689 78.4998C416.347 79.2625 417.116 79.9223 417.97 80.4572C418.837 81.0112 419.764 81.4657 420.732 81.8121C420.963 81.8991 421.213 81.9883 421.463 82.0601C421.713 82.1319 421.961 82.221 422.211 82.2776L422.585 82.3646C422.708 82.3979 422.833 82.4219 422.959 82.4363L423.333 82.4907L423.708 82.5081C424.744 82.5517 425.781 82.4611 426.794 82.2384C427.822 82.0226 428.834 81.737 429.823 81.3837C430.82 81.0294 431.796 80.6191 432.746 80.1549C433.7 79.6941 434.612 79.1512 435.472 78.5324L435.752 78.7281Z" fill="black"></path><path d="M465.507 50.7544C403.84 50.7544 370.947 24.0813 370.947 24.0813C370.947 46.3524 422.762 45.9435 445.015 72.3316C449.345 77.4644 452.464 86.2706 454.833 99.5463C461.908 102.861 468.767 105.603 475.146 108.135C477.756 90.0485 481.097 77.3753 485.479 72.3316C508.098 46.2327 560.975 46.3524 560.975 24.0813C560.955 24.0813 527.172 50.7544 465.507 50.7544Z" fill="black"></path><path d="M465.505 44.7147C474.755 44.7147 482.254 37.2159 482.254 27.9657C482.254 18.7155 474.755 11.2167 465.505 11.2167C456.255 11.2167 448.756 18.7155 448.756 27.9657C448.756 37.2159 456.255 44.7147 465.505 44.7147Z" fill="black"></path></svg> 