<svg width="400" height="63" viewBox="0 0 400 63" fill="none" xmlns="http://www.w3.org/2000/svg">
<path d="M382.749 18.0421C386.02 18.0421 388.948 18.7279 391.533 20.0996C394.171 21.4712 396.228 23.5814 397.705 26.4301C399.235 29.2261 400 32.6552 400 36.7173V62.0396H394.54V37.3504C394.54 32.6552 393.353 29.0679 390.979 26.5884C388.658 24.1089 385.466 22.8692 381.404 22.8692C377.236 22.8692 373.913 24.1881 371.433 26.8258C368.954 29.4635 367.714 33.341 367.714 38.4582V62.0396H362.175V3.48181H367.714V26.1927C369.086 23.6078 371.09 21.6031 373.728 20.1787C376.419 18.7543 379.426 18.0421 382.749 18.0421Z" fill="white"/>
<path d="M319.026 40.4366C319.026 35.9524 319.922 32.0486 321.716 28.725C323.51 25.3487 325.989 22.7637 329.155 20.9701C332.32 19.1236 335.934 18.2004 339.996 18.2004C345.324 18.2004 349.703 19.5193 353.132 22.157C356.613 24.7948 358.855 28.3821 359.858 32.919H353.923C353.184 29.8065 351.575 27.3798 349.096 25.6389C346.669 23.8452 343.636 22.9484 339.996 22.9484C337.094 22.9484 334.483 23.6078 332.162 24.9267C329.84 26.2455 327.994 28.2238 326.622 30.8616C325.303 33.4466 324.644 36.6382 324.644 40.4366C324.644 44.2349 325.303 47.453 326.622 50.0907C327.994 52.7284 329.84 54.7067 332.162 56.0256C334.483 57.3445 337.094 58.0039 339.996 58.0039C343.636 58.0039 346.669 57.1335 349.096 55.3925C351.575 53.5989 353.184 51.1194 353.923 47.9541H359.858C358.855 52.3855 356.613 55.9465 353.132 58.637C349.65 61.3275 345.271 62.6727 339.996 62.6727C335.934 62.6727 332.32 61.7759 329.155 59.9822C325.989 58.1358 323.51 55.5508 321.716 52.2273C319.922 48.851 319.026 44.9207 319.026 40.4366Z" fill="white"/>
<path d="M308.466 23.5022V50.328C308.466 52.9658 308.967 54.7858 309.969 55.7881C310.972 56.7905 312.739 57.2916 315.271 57.2916H320.336V62.0396H314.401C310.497 62.0396 307.595 61.1427 305.696 59.3491C303.797 57.5027 302.847 54.4956 302.847 50.328V23.5022H296.833V18.8334H302.847V7.99231H308.466V18.8334H320.336V23.5022H308.466Z" fill="white"/>
<path d="M299.043 38.2209C299.043 40.12 298.991 41.5708 298.885 42.5731H263.038C263.197 45.8439 263.988 48.6399 265.412 50.9612C266.837 53.2824 268.709 55.0496 271.031 56.263C273.352 57.4236 275.884 58.0039 278.627 58.0039C282.215 58.0039 285.222 57.1335 287.648 55.3925C290.128 53.6516 291.763 51.3041 292.555 48.3498H298.41C297.355 52.5702 295.087 56.0256 291.605 58.7161C288.176 61.3538 283.85 62.6727 278.627 62.6727C274.565 62.6727 270.925 61.7759 267.707 59.9822C264.489 58.1358 261.957 55.5508 260.11 52.2273C258.317 48.851 257.42 44.9207 257.42 40.4366C257.42 35.9524 258.317 32.0222 260.11 28.6459C261.904 25.2696 264.41 22.6846 267.628 20.8909C270.846 19.0973 274.512 18.2004 278.627 18.2004C282.742 18.2004 286.33 19.0973 289.389 20.8909C292.502 22.6846 294.876 25.1113 296.511 28.1711C298.199 31.1781 299.043 34.528 299.043 38.2209ZM293.425 38.0626C293.478 34.8446 292.818 32.1013 291.447 29.8329C290.128 27.5644 288.308 25.8499 285.987 24.6893C283.665 23.5287 281.133 22.9484 278.39 22.9484C274.275 22.9484 270.767 24.2672 267.865 26.905C264.964 29.5427 263.355 33.2619 263.038 38.0626H293.425Z" fill="white"/>
<path d="M244.735 26.5093C245.948 23.8188 247.795 21.735 250.274 20.2578C252.806 18.7807 255.892 18.0421 259.533 18.0421V23.8188H258.029C254.02 23.8188 250.802 24.9002 248.375 27.0632C245.948 29.2261 244.735 32.8398 244.735 37.9043V62.0396H239.196V18.8334H244.735V26.5093Z" fill="white"/>
<path d="M226.103 23.5022V50.328C226.103 52.9658 226.605 54.7858 227.607 55.7881C228.609 56.7905 230.377 57.2916 232.909 57.2916H237.973V62.0396H232.038C228.134 62.0396 225.233 61.1427 223.334 59.3491C221.435 57.5027 220.485 54.4956 220.485 50.328V23.5022H214.471V18.8334H220.485V7.99231H226.103V18.8334H237.973V23.5022H226.103Z" fill="white"/>
<path d="M198.307 62.5935C194.667 62.5935 191.449 61.9604 188.653 60.6943C185.91 59.4282 183.747 57.6609 182.164 55.3925C180.581 53.124 179.737 50.5918 179.632 47.7958H185.488C185.751 50.4863 186.938 52.8602 189.049 54.9177C191.159 56.9224 194.245 57.9247 198.307 57.9247C202.053 57.9247 205.007 56.9751 207.17 55.0759C209.386 53.124 210.493 50.6709 210.493 47.7166C210.493 45.3427 209.887 43.4435 208.673 42.0191C207.46 40.542 205.956 39.4605 204.163 38.7747C202.369 38.0362 199.89 37.2448 196.724 36.4008C193.032 35.3984 190.104 34.4224 187.941 33.4729C185.778 32.5233 183.931 31.0461 182.401 29.0415C180.872 27.0368 180.107 24.3199 180.107 20.8909C180.107 18.0421 180.845 15.5099 182.322 13.2942C183.799 11.0257 185.883 9.25842 188.574 7.99231C191.264 6.7262 194.35 6.09314 197.832 6.09314C202.949 6.09314 207.064 7.35925 210.177 9.89148C213.342 12.371 215.162 15.589 215.637 19.5456H209.623C209.254 17.2771 208.014 15.2725 205.904 13.5316C203.794 11.7379 200.945 10.8411 197.357 10.8411C194.034 10.8411 191.264 11.7379 189.049 13.5316C186.833 15.2725 185.725 17.6728 185.725 20.7326C185.725 23.0538 186.332 24.9266 187.545 26.351C188.758 27.7753 190.262 28.8568 192.056 29.5954C193.902 30.334 196.381 31.1253 199.494 31.9694C203.081 32.9717 205.983 33.974 208.199 34.9764C210.414 35.926 212.287 37.4031 213.817 39.4078C215.347 41.4125 216.112 44.1029 216.112 47.4793C216.112 50.0642 215.426 52.5173 214.054 54.8385C212.683 57.1598 210.652 59.0326 207.961 60.4569C205.271 61.8813 202.053 62.5935 198.307 62.5935Z" fill="white"/>
<path d="M157.578 62.7518C153.358 62.7518 149.559 61.8285 146.183 59.9821C142.807 58.083 140.142 55.4188 138.191 51.9898C136.291 48.5607 135.342 44.6041 135.342 40.12C135.342 35.6358 136.318 31.6792 138.27 28.2501C140.274 24.8211 142.991 22.1833 146.42 20.3369C149.849 18.4377 153.674 17.4882 157.894 17.4882C162.115 17.4882 165.94 18.4377 169.369 20.3369C172.798 22.1833 175.488 24.8211 177.44 28.2501C179.445 31.6792 180.447 35.6358 180.447 40.12C180.447 44.6041 179.418 48.5607 177.361 51.9898C175.356 55.4188 172.613 58.083 169.131 59.9821C165.702 61.8285 161.851 62.7518 157.578 62.7518ZM157.578 53.0976C159.583 53.0976 161.455 52.6228 163.196 51.6732C164.99 50.6709 166.414 49.1938 167.469 47.2419C168.525 45.2899 169.052 42.916 169.052 40.12C169.052 35.9523 167.944 32.7607 165.729 30.545C163.566 28.2765 160.901 27.1423 157.736 27.1423C154.571 27.1423 151.907 28.2765 149.744 30.545C147.634 32.7607 146.579 35.9523 146.579 40.12C146.579 44.2876 147.607 47.5056 149.665 49.7741C151.775 51.9898 154.413 53.0976 157.578 53.0976Z" fill="white"/>
<path d="M125.11 25.0058C126.535 22.6846 128.381 20.8646 130.649 19.5457C132.971 18.2268 135.608 17.5674 138.563 17.5674V29.1998H135.635C132.153 29.1998 129.515 30.0175 127.722 31.6529C125.981 33.2883 125.11 36.1371 125.11 40.1992V62.0397H114.032V18.2004H125.11V25.0058Z" fill="white"/>
<path d="M105.539 12.9777C103.588 12.9777 101.952 12.371 100.633 11.1576C99.3672 9.89152 98.7341 8.33525 98.7341 6.48884C98.7341 4.64242 99.3672 3.11253 100.633 1.89917C101.952 0.633058 103.588 0 105.539 0C107.491 0 109.1 0.633058 110.367 1.89917C111.685 3.11253 112.345 4.64242 112.345 6.48884C112.345 8.33525 111.685 9.89152 110.367 11.1576C109.1 12.371 107.491 12.9777 105.539 12.9777ZM111 18.2004V62.0396H99.9211V18.2004H111Z" fill="white"/>
<path d="M80.2066 17.5673C83.5301 17.5673 86.4844 18.3059 89.0694 19.783C91.6543 21.2074 93.659 23.344 95.0834 26.1927C96.5605 28.9887 97.2991 32.365 97.2991 36.3217V62.0396H86.2206V37.8252C86.2206 34.3433 85.3502 31.6792 83.6092 29.8328C81.8683 27.9336 79.4944 26.9841 76.4873 26.9841C73.4276 26.9841 71.0009 27.9336 69.2072 29.8328C67.4663 31.6792 66.5958 34.3433 66.5958 37.8252V62.0396H55.5173V3.48181H66.5958V23.6605C68.0202 21.7613 69.9194 20.2842 72.2933 19.2291C74.6673 18.1213 77.3051 17.5673 80.2066 17.5673Z" fill="white"/>
<path d="M0 34.3433C0 28.9096 1.21336 24.0561 3.64008 19.783C6.11955 15.4571 9.46948 12.1072 13.6899 9.73322C17.963 7.3065 22.7373 6.09314 28.0128 6.09314C34.1851 6.09314 39.5925 7.67578 44.2349 10.8411C48.8773 14.0064 52.1217 18.385 53.9681 23.977H41.2279C39.9617 21.3393 38.1681 19.361 35.8469 18.0421C33.5784 16.7232 30.9407 16.0638 27.9336 16.0638C24.7156 16.0638 21.8405 16.8287 19.3082 18.3586C16.8288 19.8358 14.8768 21.9459 13.4525 24.6892C12.0808 27.4324 11.395 30.6505 11.395 34.3433C11.395 37.9834 12.0808 41.2014 13.4525 43.9974C14.8768 46.7407 16.8288 48.8773 19.3082 50.4071C21.8405 51.8843 24.7156 52.6228 27.9336 52.6228C30.9407 52.6228 33.5784 51.9634 35.8469 50.6445C38.1681 49.2729 39.9617 47.2682 41.2279 44.6305H53.9681C52.1217 50.2753 48.8773 54.6803 44.2349 57.8456C39.6452 60.9581 34.2378 62.5144 28.0128 62.5144C22.7373 62.5144 17.963 61.3274 13.6899 58.9534C9.46948 56.5267 6.11955 53.1768 3.64008 48.9036C1.21336 44.6305 0 39.7771 0 34.3433Z" fill="white"/>
</svg>
